<mxfile host="app.diagrams.net" modified="2024-06-19T02:09:47.775Z" agent="Mozilla/5.0 (Windows NT 10.0; Win64; x64) AppleWebKit/537.36 (KHTML, like Gecko) Chrome/125.0.0.0 Safari/537.36" version="24.5.5" etag="nr0p4ezUToehFvmhJD14" type="github">
  <diagram name="Halaman-1" id="XX6FQm8HDBL6V0O3jJga">
    <mxGraphModel>
      <root>
        <mxCell id="0" />
        <mxCell id="1" parent="0" />
      </root>
    </mxGraphModel>
  </diagram>
</mxfile>
